<?xml version="1.0" encoding="UTF-8" standalone="no"?>
<!-- Created with Inkscape (http://www.inkscape.org/) -->

<svg
   width="210mm"
   height="297mm"
   viewBox="0 0 210 297"
   version="1.1"
   id="svg5"
   inkscape:version="1.1.2 (0a00cf5339, 2022-02-04)"
   sodipodi:docname="humpty dumpty_Uofsc_wall.svg"
   xmlns:inkscape="http://www.inkscape.org/namespaces/inkscape"
   xmlns:sodipodi="http://sodipodi.sourceforge.net/DTD/sodipodi-0.dtd"
   xmlns="http://www.w3.org/2000/svg"
   xmlns:svg="http://www.w3.org/2000/svg">
  <sodipodi:namedview
     id="namedview7"
     pagecolor="#ffffff"
     bordercolor="#666666"
     borderopacity="1.0"
     inkscape:pageshadow="2"
     inkscape:pageopacity="0.0"
     inkscape:pagecheckerboard="0"
     inkscape:document-units="mm"
     showgrid="false"
     inkscape:zoom="0.35355339"
     inkscape:cx="591.14127"
     inkscape:cy="554.37172"
     inkscape:window-width="1920"
     inkscape:window-height="1012"
     inkscape:window-x="0"
     inkscape:window-y="0"
     inkscape:window-maximized="1"
     inkscape:current-layer="layer1" />
  <defs
     id="defs2" />
  <g
     inkscape:label="Layer 1"
     inkscape:groupmode="layer"
     id="layer1">
    <path
       style="fill:none;stroke:#000000;stroke-width:0.264583px;stroke-linecap:butt;stroke-linejoin:miter;stroke-opacity:1"
       d="m 83.100746,109.94021 v -3.39991 l 1.324587,-1.32459 V 84.393387 h -2.9099 v -1.446951 h 1.362215 c 1.409362,-0.207059 1.651614,-1.711047 1.67358,-2.898726 l 0.89243,-0.770776 -0.401785,-0.888062 c 0,0 -0.463477,0.165339 -0.574758,-0.04414 -0.11128,-0.209477 0.34709,-0.410476 0.34709,-0.410476 0,0 -0.826726,-0.247275 -0.894243,-0.546716 -0.06752,-0.299441 0.433943,-0.664479 0.433943,-0.664479 l -0.02637,-2.430586 c 0,0 -0.883969,0.02807 -0.99167,-0.279164 -0.107701,-0.307232 0.549786,-0.752262 0.549786,-0.752262 l 5.133814,0.001 c 0,0 0.668934,0.444017 0.561233,0.751249 -0.107701,0.307234 -0.99167,0.279164 -0.99167,0.279164 l -0.02637,2.430586 c 0,0 0.501463,0.365038 0.433943,0.664479 -0.06752,0.299441 -0.894243,0.546716 -0.894243,0.546716 0,0 0.45837,0.200999 0.34709,0.410476 -0.111281,0.209479 -0.574758,0.04414 -0.574758,0.04414 l -0.401785,0.888062 0.89243,0.770776 c 0.02197,1.187679 0.264218,2.691667 1.67358,2.898726 h 1.362215 v 1.446951 h -2.9099 v 20.822323 l 1.324587,1.32459 v 3.39991"
       id="path54-3"
       sodipodi:nodetypes="cccccccccczczcczcczcczczcccccccccc"
       inkscape:export-filename="humpty_dumpty_logo.png"
       inkscape:export-xdpi="300"
       inkscape:export-ydpi="300" />
    <path
       style="fill:none;stroke:#000000;stroke-width:0.264583px;stroke-linecap:butt;stroke-linejoin:miter;stroke-opacity:1"
       d="m 88.593379,89.518693 h 4.593436 c -0.211135,3.273301 1.337197,6.32542 3.358413,6.526038 l 16.135102,0.28974"
       id="path908"
       sodipodi:nodetypes="cccc"
       inkscape:export-filename="humpty_dumpty_logo.png"
       inkscape:export-xdpi="300"
       inkscape:export-ydpi="300" />
    <path
       style="fill:none;stroke:#000000;stroke-width:0.264583px;stroke-linecap:butt;stroke-linejoin:miter;stroke-opacity:1"
       d="m 88.525392,91.869903 2.858862,0 c -0.211135,3.273301 3.065302,6.489746 5.09613,6.526038 l 16.213346,0.28974"
       id="path908-6"
       sodipodi:nodetypes="ccsc"
       inkscape:export-filename="humpty_dumpty_logo.png"
       inkscape:export-xdpi="300"
       inkscape:export-ydpi="300" />
    <path
       style="fill:none;stroke:#000000;stroke-width:0.264583px;stroke-linecap:butt;stroke-linejoin:miter;stroke-opacity:1"
       d="m 112.68033,96.33447 v 13.66652"
       id="path2049"
       sodipodi:nodetypes="cc"
       inkscape:export-filename="humpty_dumpty_logo.png"
       inkscape:export-xdpi="300"
       inkscape:export-ydpi="300" />
    <path
       style="fill:none;stroke:#000000;stroke-width:0.165;stroke-linecap:butt;stroke-linejoin:miter;stroke-opacity:1;stroke-miterlimit:4;stroke-dasharray:none"
       d="m 84.425331,84.393385 h 4.065897 v 0"
       id="path2164"
       inkscape:export-filename="humpty_dumpty_logo.png"
       inkscape:export-xdpi="300"
       inkscape:export-ydpi="300" />
    <path
       style="fill:none;stroke:#000000;stroke-width:0.165;stroke-linecap:butt;stroke-linejoin:miter;stroke-miterlimit:4;stroke-dasharray:none;stroke-opacity:1"
       d="m 83.162934,82.914511 h 4.065897 l 2.396207,0"
       id="path2164-7"
       sodipodi:nodetypes="ccc"
       inkscape:export-filename="humpty_dumpty_logo.png"
       inkscape:export-xdpi="300"
       inkscape:export-ydpi="300" />
    <path
       style="fill:none;stroke:#000000;stroke-width:0.165;stroke-linecap:butt;stroke-linejoin:miter;stroke-miterlimit:4;stroke-dasharray:none;stroke-opacity:1"
       d="m 84.551228,80.04771 3.814107,0"
       id="path2164-7-5"
       sodipodi:nodetypes="cc"
       inkscape:export-filename="humpty_dumpty_logo.png"
       inkscape:export-xdpi="300"
       inkscape:export-ydpi="300" />
    <path
       style="fill:none;stroke:#000000;stroke-width:0.165;stroke-linecap:butt;stroke-linejoin:miter;stroke-miterlimit:4;stroke-dasharray:none;stroke-opacity:1"
       d="m 85.443658,79.276934 2.029247,0"
       id="path2164-7-5-5"
       sodipodi:nodetypes="cc"
       inkscape:export-filename="humpty_dumpty_logo.png"
       inkscape:export-xdpi="300"
       inkscape:export-ydpi="300" />
    <path
       style="fill:none;stroke:#000000;stroke-width:0.165;stroke-linecap:butt;stroke-linejoin:miter;stroke-miterlimit:4;stroke-dasharray:none;stroke-opacity:1"
       d="m 84.353905,76.723061 h 4.208753"
       id="path2164-7-5-6"
       sodipodi:nodetypes="cc"
       inkscape:export-filename="humpty_dumpty_logo.png"
       inkscape:export-xdpi="300"
       inkscape:export-ydpi="300" />
    <path
       style="fill:none;stroke:#000000;stroke-width:0.165;stroke-linecap:butt;stroke-linejoin:miter;stroke-miterlimit:4;stroke-dasharray:none;stroke-opacity:1"
       d="m 84.814205,77.934256 h 3.288153"
       id="path2164-7-5-2"
       sodipodi:nodetypes="cc"
       inkscape:export-filename="humpty_dumpty_logo.png"
       inkscape:export-xdpi="300"
       inkscape:export-ydpi="300" />
    <path
       style="fill:none;stroke:#000000;stroke-width:0.165;stroke-linecap:butt;stroke-linejoin:miter;stroke-miterlimit:4;stroke-dasharray:none;stroke-opacity:1"
       d="M 85.041873,78.388872 H 87.87469"
       id="path2164-7-5-9"
       sodipodi:nodetypes="cc"
       inkscape:export-filename="humpty_dumpty_logo.png"
       inkscape:export-xdpi="300"
       inkscape:export-ydpi="300" />
    <path
       style="fill:none;stroke:#000000;stroke-width:0.265903px;stroke-linecap:butt;stroke-linejoin:miter;stroke-opacity:1"
       d="M 82.970899,109.94331 H 112.8097"
       id="path5637"
       sodipodi:nodetypes="cc"
       inkscape:export-filename="humpty_dumpty_logo.png"
       inkscape:export-xdpi="300"
       inkscape:export-ydpi="300" />
    <ellipse
       style="fill:none;fill-opacity:1;stroke:#000000;stroke-width:0.172575;stroke-miterlimit:4;stroke-dasharray:none;stroke-dashoffset:0;stroke-opacity:0.847059"
       id="path6285"
       cx="106.17605"
       cy="89.217003"
       rx="3.345252"
       ry="4.8264799"
       transform="rotate(1.0303554)"
       inkscape:export-filename="humpty_dumpty_logo.png"
       inkscape:export-xdpi="300"
       inkscape:export-ydpi="300" />
    <path
       style="fill:none;stroke:#000000;stroke-width:0.175092;stroke-linecap:butt;stroke-linejoin:miter;stroke-miterlimit:4;stroke-dasharray:none;stroke-opacity:1"
       d="m 100.05038,95.089014 0.37558,-0.270588 1.1511,-1.48206"
       id="path6509"
       sodipodi:nodetypes="ccc"
       inkscape:export-filename="humpty_dumpty_logo.png"
       inkscape:export-xdpi="300"
       inkscape:export-ydpi="300" />
    <path
       style="fill:none;stroke:#000000;stroke-width:0.0605575px;stroke-linecap:butt;stroke-linejoin:miter;stroke-opacity:1"
       d="m 99.168121,95.154859 c 0.02509,0.02632 0.40183,0.613492 0.40183,0.613492 l 0.729999,-0.259865 c 0,0 -0.52041,-0.86103 -0.505848,-0.82888 0.01455,0.03215 -0.625981,0.475253 -0.625981,0.475253 z"
       id="path6544"
       inkscape:export-filename="humpty_dumpty_logo.png"
       inkscape:export-xdpi="300"
       inkscape:export-ydpi="300" />
    <path
       style="fill:#ffffff;stroke:#000000;stroke-width:0.0605575px;stroke-linecap:butt;stroke-linejoin:miter;stroke-opacity:1;fill-opacity:1"
       d="m 99.53938,95.721255 c 0,0 -0.599182,0.882423 -0.794856,0.770379 -0.195677,-0.112043 0.06324,-0.71558 0.06324,-0.71558 0,0 -1.182951,0.13625 -1.419569,0.04541 -0.236617,-0.09084 0.213802,-0.218451 0.213802,-0.218451 0.522042,-0.149385 1.613173,-0.411296 1.595873,-0.406296 z"
       id="path6546"
       sodipodi:nodetypes="cczczcc"
       inkscape:export-filename="humpty_dumpty_logo.png"
       inkscape:export-xdpi="300"
       inkscape:export-ydpi="300" />
    <path
       style="fill:#ffffff;fill-opacity:1;stroke:#000000;stroke-width:0.0605575px;stroke-linecap:butt;stroke-linejoin:miter;stroke-opacity:1"
       d="m 109.45821,95.915905 c 0,0 0.59918,0.882423 0.79486,0.770379 0.19567,-0.112043 -0.0632,-0.71558 -0.0632,-0.71558 0,0 1.18295,0.13625 1.41956,0.04541 0.23662,-0.09084 -0.2138,-0.218451 -0.2138,-0.218451 -0.52204,-0.149385 -1.61317,-0.411296 -1.59587,-0.406296 z"
       id="path6546-1"
       sodipodi:nodetypes="cczczcc"
       inkscape:export-filename="humpty_dumpty_logo.png"
       inkscape:export-xdpi="300"
       inkscape:export-ydpi="300" />
    <path
       style="fill:none;stroke:#000000;stroke-width:0.31242;stroke-linecap:butt;stroke-linejoin:miter;stroke-miterlimit:4;stroke-dasharray:none;stroke-opacity:1"
       d="m 103.02138,95.405983 -0.9971,0.719765 0.2714,0.874086"
       id="path6904"
       sodipodi:nodetypes="ccc"
       inkscape:export-filename="humpty_dumpty_logo.png"
       inkscape:export-xdpi="300"
       inkscape:export-ydpi="300" />
    <path
       style="fill:#ffffff;stroke:#000000;stroke-width:0.0605575px;stroke-linecap:butt;stroke-linejoin:miter;stroke-opacity:1;fill-opacity:1"
       d="m 103.44005,99.433462 -0.36764,0.142088 -0.14538,-0.450606 -0.26163,0.06993 -0.54167,0.731021 c 0,0 -0.93481,0.522955 -1.18797,0.255825 -0.16633,-0.283513 0.58436,-0.719024 0.80195,-0.897572 0.24975,-0.218592 0.56891,-0.802773 0.56891,-0.802773 l -0.43547,-1.342506 0.85828,-0.268934 z"
       id="path6906"
       sodipodi:nodetypes="ccccccccccc"
       inkscape:export-filename="humpty_dumpty_logo.png"
       inkscape:export-xdpi="300"
       inkscape:export-ydpi="300" />
    <path
       style="fill:none;stroke:#000000;stroke-width:0.175092;stroke-linecap:butt;stroke-linejoin:miter;stroke-miterlimit:4;stroke-dasharray:none;stroke-opacity:1"
       d="m 108.93906,95.248878 -0.36561,-0.283919 -1.09706,-1.522493"
       id="path6509-8"
       sodipodi:nodetypes="ccc"
       inkscape:export-filename="humpty_dumpty_logo.png"
       inkscape:export-xdpi="300"
       inkscape:export-ydpi="300" />
    <path
       style="fill:none;stroke:#000000;stroke-width:0.0605575px;stroke-linecap:butt;stroke-linejoin:miter;stroke-opacity:1"
       d="m 109.81838,95.346404 c -0.026,0.0254 -0.42363,0.598646 -0.42363,0.598646 l -0.72018,-0.285946 c 0,0 0.55103,-0.84176 0.53533,-0.810154 -0.0157,0.0316 0.60848,0.497454 0.60848,0.497454 z"
       id="path6544-9"
       inkscape:export-filename="humpty_dumpty_logo.png"
       inkscape:export-xdpi="300"
       inkscape:export-ydpi="300" />
    <path
       style="fill:none;stroke:#000000;stroke-width:0.31242;stroke-linecap:butt;stroke-linejoin:miter;stroke-miterlimit:4;stroke-dasharray:none;stroke-opacity:1"
       d="m 105.95859,95.458809 0.97057,0.755153 -0.30265,0.863762"
       id="path6904-3"
       sodipodi:nodetypes="ccc"
       inkscape:export-filename="humpty_dumpty_logo.png"
       inkscape:export-xdpi="300"
       inkscape:export-ydpi="300" />
    <path
       style="fill:#ffffff;stroke:#000000;stroke-width:0.0605575px;stroke-linecap:butt;stroke-linejoin:miter;stroke-opacity:1;fill-opacity:1"
       d="m 105.39536,99.468629 0.36229,0.155215 0.16149,-0.445087 0.25895,0.07929 0.51503,0.750023 c 0,0 0.91541,0.55624 1.17801,0.29838 0.17642,-0.27735 -0.55813,-0.739571 -0.76916,-0.925829 -0.24173,-0.227431 -0.53968,-0.82271 -0.53968,-0.82271 l 0.48347,-1.325979 -0.84806,-0.299623 z"
       id="path6906-6"
       sodipodi:nodetypes="ccccccccccc"
       inkscape:export-filename="humpty_dumpty_logo.png"
       inkscape:export-xdpi="300"
       inkscape:export-ydpi="300" />
    <path
       style="fill:none;stroke:#000000;stroke-width:0.129317;stroke-linecap:butt;stroke-linejoin:miter;stroke-miterlimit:4;stroke-dasharray:none;stroke-opacity:1"
       d="m 102.63443,91.386852 c 0,0 1.29753,0.217897 1.95793,0.219487 0.66039,0.0016 1.98083,-0.212401 1.98083,-0.212401 0,0 -1.18432,1.043187 -1.9613,1.045976 -0.77698,0.0028 -1.97746,-1.053062 -1.97746,-1.053062 z"
       id="path8162"
       sodipodi:nodetypes="czczc"
       inkscape:export-filename="humpty_dumpty_logo.png"
       inkscape:export-xdpi="300"
       inkscape:export-ydpi="300" />
    <path
       style="fill:none;stroke:#000000;stroke-width:0.0605575px;stroke-linecap:butt;stroke-linejoin:miter;stroke-opacity:1"
       d="m 104.00633,89.967794 c 0,0 0.20679,-1.732004 -0.41661,-1.750037 -0.6234,-0.01803 -0.55849,1.861048 -0.55849,1.861048 z"
       id="path8277"
       sodipodi:nodetypes="czcc"
       inkscape:export-filename="humpty_dumpty_logo.png"
       inkscape:export-xdpi="300"
       inkscape:export-ydpi="300" />
    <ellipse
       style="fill:none;fill-opacity:1;stroke:#000000;stroke-width:0.172574;stroke-miterlimit:4;stroke-dasharray:none;stroke-dashoffset:0;stroke-opacity:0.847059"
       id="path8301"
       cx="105.13139"
       cy="87.596481"
       rx="0.2134821"
       ry="0.37615499"
       transform="rotate(1.0303554)"
       inkscape:export-filename="humpty_dumpty_logo.png"
       inkscape:export-xdpi="300"
       inkscape:export-ydpi="300" />
    <path
       style="fill:none;stroke:#000000;stroke-width:0.129317;stroke-linecap:butt;stroke-linejoin:miter;stroke-miterlimit:4;stroke-dasharray:none;stroke-opacity:1"
       d="m 104.04656,89.935664 -1.26526,0.233339"
       id="path8473"
       sodipodi:nodetypes="cc"
       inkscape:export-filename="humpty_dumpty_logo.png"
       inkscape:export-xdpi="300"
       inkscape:export-ydpi="300" />
    <path
       style="fill:none;stroke:#000000;stroke-width:0.0605575px;stroke-linecap:butt;stroke-linejoin:miter;stroke-opacity:1"
       d="m 105.21272,89.989778 c 0,0 -0.14438,-1.73832 0.47927,-1.733926 0.62365,0.0044 0.49121,1.879927 0.49121,1.879927 z"
       id="path8277-9"
       sodipodi:nodetypes="czcc"
       inkscape:export-filename="humpty_dumpty_logo.png"
       inkscape:export-xdpi="300"
       inkscape:export-ydpi="300" />
    <ellipse
       style="fill:none;fill-opacity:1;stroke:#000000;stroke-width:0.172574;stroke-miterlimit:4;stroke-dasharray:none;stroke-dashoffset:0;stroke-opacity:0.847059"
       id="path8301-2"
       cx="-107.28986"
       cy="87.596771"
       rx="0.2134821"
       ry="0.37615499"
       transform="matrix(-0.99983831,-0.01798213,-0.01798213,0.99983831,0,0)"
       inkscape:export-filename="humpty_dumpty_logo.png"
       inkscape:export-xdpi="300"
       inkscape:export-ydpi="300" />
    <path
       style="fill:none;stroke:#000000;stroke-width:0.129317;stroke-linecap:butt;stroke-linejoin:miter;stroke-miterlimit:4;stroke-dasharray:none;stroke-opacity:1"
       d="m 105.17367,89.956221 1.25606,0.278686"
       id="path8473-2"
       sodipodi:nodetypes="cc"
       inkscape:export-filename="humpty_dumpty_logo.png"
       inkscape:export-xdpi="300"
       inkscape:export-ydpi="300" />
    <path
       style="fill:none;stroke:#000000;stroke-width:0.175092;stroke-linecap:butt;stroke-linejoin:miter;stroke-miterlimit:4;stroke-dasharray:none;stroke-opacity:1"
       d="m 102.69429,91.034506 -0.39367,0.48364"
       id="path9223"
       inkscape:export-filename="humpty_dumpty_logo.png"
       inkscape:export-xdpi="300"
       inkscape:export-ydpi="300" />
    <path
       style="fill:none;stroke:#000000;stroke-width:0.175092;stroke-linecap:butt;stroke-linejoin:miter;stroke-miterlimit:4;stroke-dasharray:none;stroke-opacity:1"
       d="m 106.58447,91.044268 0.37603,0.497483"
       id="path9223-3"
       inkscape:export-filename="humpty_dumpty_logo.png"
       inkscape:export-xdpi="300"
       inkscape:export-ydpi="300" />
    <path
       style="fill:none;stroke:#000000;stroke-width:0.0605575px;stroke-linecap:butt;stroke-linejoin:miter;stroke-opacity:1"
       d="m 102.68602,93.157999 0.003,1.240333 1.58243,-0.415749 -0.001,-0.504615 z"
       id="path10237-7"
       inkscape:export-filename="humpty_dumpty_logo.png"
       inkscape:export-xdpi="300"
       inkscape:export-ydpi="300" />
    <path
       style="fill:none;stroke:#000000;stroke-width:0.0605575px;stroke-linecap:butt;stroke-linejoin:miter;stroke-opacity:1"
       d="m 106.41434,93.042435 -0.0471,1.23944 -1.56991,-0.280361 0.0194,-0.504244 z"
       id="path10237-7-5"
       sodipodi:nodetypes="ccccc"
       inkscape:export-filename="humpty_dumpty_logo.png"
       inkscape:export-xdpi="300"
       inkscape:export-ydpi="300" />
    <ellipse
       style="fill:#000000;fill-opacity:1;stroke:#000000;stroke-width:0.0773052;stroke-miterlimit:4;stroke-dasharray:none;stroke-dashoffset:0;stroke-opacity:1"
       id="path10368"
       cx="106.20316"
       cy="91.860336"
       rx="0.38743293"
       ry="0.40479144"
       transform="rotate(1.0303554)"
       inkscape:export-filename="humpty_dumpty_logo.png"
       inkscape:export-xdpi="300"
       inkscape:export-ydpi="300" />
    <path
       style="fill:#ffffff;fill-opacity:1;stroke:#000000;stroke-width:0.152204;stroke-linecap:butt;stroke-linejoin:miter;stroke-miterlimit:4;stroke-dasharray:none;stroke-opacity:1"
       d="m 102.29431,87.346025 c 0,0 0.27065,-0.648195 0.17358,-1.023127 -0.0971,-0.374933 -0.43836,-0.934393 -0.38539,-1.223585 0.053,-0.289191 1.32487,0.03498 1.89691,-0.0081 0.57204,-0.04313 1.43591,-0.830786 1.66479,-0.555853 0.2289,0.274931 0.25633,1.068186 0.33809,1.466521 0.0817,0.398335 0.55733,0.853652 0.55733,0.853652 z"
       id="path11282"
       sodipodi:nodetypes="czzzzzcc"
       inkscape:export-filename="humpty_dumpty_logo.png"
       inkscape:export-xdpi="300"
       inkscape:export-ydpi="300" />
    <path
       style="fill:none;stroke:#000000;stroke-width:0.0605575px;stroke-linecap:butt;stroke-linejoin:miter;stroke-opacity:1"
       d="m 102.53122,86.594387 c 1.00789,-0.250403 1.53288,-0.542441 3.48556,-0.566394"
       id="path12453"
       sodipodi:nodetypes="cc"
       inkscape:export-filename="humpty_dumpty_logo.png"
       inkscape:export-xdpi="300"
       inkscape:export-ydpi="300" />
    <path
       style="fill:none;stroke:#000000;stroke-width:0.289532;stroke-linecap:butt;stroke-linejoin:miter;stroke-miterlimit:4;stroke-dasharray:none;stroke-opacity:1"
       d="m 100.40274,87.988972 c 2.20409,-0.870589 5.716,-1.226843 7.36904,-1.021353"
       id="path11247"
       sodipodi:nodetypes="cc"
       inkscape:export-filename="humpty_dumpty_logo.png"
       inkscape:export-xdpi="300"
       inkscape:export-ydpi="300" />
    <text
       xml:space="preserve"
       style="font-style:normal;font-weight:normal;font-size:10.2071px;line-height:1.25;font-family:sans-serif;letter-spacing:0px;word-spacing:0px;fill:#000000;fill-opacity:1;stroke:none;stroke-width:0.255177"
       x="90.759254"
       y="108.49721"
       id="text16048"
       inkscape:export-filename="humpty_dumpty_logo.png"
       inkscape:export-xdpi="300"
       inkscape:export-ydpi="300"><tspan
         sodipodi:role="line"
         id="tspan16046"
         style="stroke-width:0.255177"
         x="90.759254"
         y="108.49721">USC</tspan></text>
  </g>
</svg>
